<svg xmlns="http://www.w3.org/2000/svg" width="16" height="16" viewBox="0 0 16 16">
    <g fill="none" fill-rule="evenodd">
        <g fill="#032E49" fill-rule="nonzero">
            <g>
                <g>
                    <path d="M2.02 13.98h1.46c.562 0 1.02-.459 1.02-1.022V6.25c0-.563-.458-1.02-1.02-1.02H2.02C1.459 5.23 1 5.686 1 6.25v6.708c0 .563.458 1.021 1.02 1.021zM8.456 1c-.584 0-.875.292-.875 1.75 0 1.386-1.343 2.501-2.206 3.076v7.226c.934.433 2.803 1.073 5.706 1.073h.933c1.137 0 2.106-.817 2.298-1.937l.654-3.791c.245-1.43-.852-2.73-2.299-2.73H9.914s.437-.875.437-2.334C10.351 1.583 9.04 1 8.456 1z" transform="translate(-723 -471) translate(692 460) rotate(180 23.5 13.5)"/>
                </g>
            </g>
        </g>
    </g>
</svg>
