<svg xmlns="http://www.w3.org/2000/svg" width="89" height="93" viewBox="0 0 89 93">
    <g fill="none" fill-rule="evenodd">
        <g fill-rule="nonzero">
            <g>
                <g>
                    <path fill="#F72C56" d="M71.122 35.562c0 19.64-15.922 35.56-35.562 35.56-4.817 0-9.41-.958-13.6-2.694C10.512 63.685 2.079 53.134.336 40.449.113 38.852 0 37.22 0 35.562 0 15.92 15.92 0 35.56 0s35.562 15.92 35.562 35.562z" transform="translate(-507 -292) translate(507 292) translate(11 9.44)"/>
                    <path fill="#BB0F33" d="M5.456 0C3.6 0 1.778.147 0 .428c16.795 2.655 29.647 17.373 29.647 35.134 0 17.758-12.85 32.475-29.645 35.131 1.778.281 3.598.43 5.453.43 19.386 0 35.102-15.922 35.102-35.561C40.557 15.92 24.841 0 5.456 0z" transform="translate(-507 -292) translate(507 292) translate(11 9.44) rotate(180 20.279 35.561)"/>
                </g>
                <g>
                    <path fill="#FDD7BD" d="M75.181 40.32L55.186 53.695c-1.425.953-3.15 1.331-4.837 1.059-1.691-.272-3.42.101-4.849 1.056l-2.676 1.792-14.986-22.317 3.677-16.046c.285-1.25.427-2.515.427-3.777 0-3.262-.945-6.483-2.756-9.247-.445-.68-.658-1.449-.658-2.208 0-1.298.623-2.571 1.775-3.342 1.552-1.039 3.61-.846 4.946.464l2.383 2.33c2.724 2.67 4.825 5.921 6.144 9.517l1.292 3.513 13.3-8.878c2.125-1.421 4.999-.8 6.355 1.398 1.308 2.118.636 4.915-1.425 6.294-.024.016-.026.043-.018.064.012.022.037.037.065.025.525-.205 1.075-.304 1.62-.304.871 0 1.734.254 2.472.736.509.332.96.773 1.315 1.316.686 1.048.89 2.277.666 3.42-.352 1.799-1.647 2.726-1.901 2.9-.043.03-.055.091-.025.137l.003.003c.028.04.086.052.128.025.362-.089.731-.131 1.1-.131.901 0 1.797.259 2.559.75.515.332.97.772 1.323 1.31 1.382 2.11.811 4.952-1.279 6.35l-.154.104c-.03.024-.039.062-.023.089.003.006.01.013.016.016.023.019.06.02.09-.003 1.298-.447 2.711-.243 3.848.5.523.34.987.797 1.355 1.357 1.383 2.111.81 4.954-1.277 6.351z" transform="translate(-507 -292) translate(507 292) rotate(180 41.256 44.04)"/>
                    <path fill="#23C1FF" d="M34.3 67.66l-12.188 8.164C10.829 71.096 2.518 60.58.8 47.934l14.144-9.475 8.61-5.769c.991-.664 2.329-.388 2.986.616l16.81 25.677c.657 1.004.385 2.355-.609 3.022L34.3 67.66z" transform="translate(-507 -292) translate(507 292) rotate(180 41.256 44.04)"/>
                    <path fill="#0976FF" d="M42.74 61.856l-8.453 5.74-19.38-29.634 8.621-5.854c.993-.674 2.332-.394 2.99.625L43.35 58.79c.658 1.02.385 2.39-.61 3.067z" transform="translate(-507 -292) translate(507 292) rotate(180 41.256 44.04)"/>
                    <g fill="#FAC5AA">
                        <path d="M9.391.837L2.82 4.444c-.932.51-2.088.244-2.715-.627L5.285.38c.013.022.037.037.065.025C5.869.2 6.412.1 6.95.1c.86 0 1.712.254 2.441.736zM13.189 9.279L6.76 12.804c-.932.512-2.088.246-2.715-.625l5.18-3.438.224-.107c.028.04.086.052.126.025.358-.089.723-.132 1.087-.132.89 0 1.775.26 2.527.752zM16.963 17.667L11.3 20.773c-.931.51-2.087.244-2.716-.626l4.488-2.978c.024.018.06.02.09-.004 1.281-.447 2.677-.244 3.8.502z" transform="translate(-507 -292) translate(507 292) rotate(180 41.256 44.04) translate(58.403 15.282)"/>
                    </g>
                </g>
                <g fill="#FF5A7C" stroke="#FF5A7C" stroke-width="2">
                    <g>
                        <path d="M4.95 4l2.853-2.852c.263-.263.263-.688 0-.951-.262-.263-.688-.263-.95 0L4 3.05 1.148.197C.885-.066.459-.066.197.197c-.263.263-.263.688 0 .95L3.049 4 .197 6.853c-.263.262-.263.688 0 .95.262.263.688.263.95 0L4 4.952l2.852 2.853c.263.262.689.262.951 0 .263-.263.263-.689 0-.951L4.951 4z" transform="translate(-507 -292) translate(507 292) translate(3 18)"/>
                    </g>
                </g>
                <g fill="#FF5A7C" stroke="#FF5A7C" stroke-width="2">
                    <g>
                        <path d="M4.95 4l2.853-2.852c.263-.263.263-.688 0-.951-.262-.263-.688-.263-.95 0L4 3.05 1.148.197C.885-.066.459-.066.197.197c-.263.263-.263.688 0 .95L3.049 4 .197 6.853c-.263.262-.263.688 0 .95.262.263.688.263.95 0L4 4.952l2.852 2.853c.263.262.689.262.951 0 .263-.263.263-.689 0-.951L4.951 4z" transform="translate(-507 -292) translate(507 292) translate(72 79)"/>
                    </g>
                </g>
                <g fill="#FF5A7C" stroke="#FF5A7C" stroke-width="2">
                    <g>
                        <path d="M3.713 3L5.853.86c.196-.196.196-.515 0-.712-.198-.197-.517-.197-.714 0L3 2.288.86.147C.665-.05.346-.05.149.148-.05.345-.05.664.148.86L2.287 3 .147 5.14c-.196.197-.196.516 0 .713.198.197.517.197.714 0L3 3.713l2.14 2.14c.196.197.515.197.712 0 .197-.197.197-.516 0-.713L3.713 3z" transform="translate(-507 -292) translate(507 292) translate(13 5)"/>
                    </g>
                </g>
            </g>
        </g>
    </g>
</svg>
