<svg xmlns="http://www.w3.org/2000/svg" xmlns:xlink="http://www.w3.org/1999/xlink" width="143" height="143" viewBox="0 0 143 143">
    <defs>
        <filter id="p85revrlaa" width="158.5%" height="158.5%" x="-29.3%" y="-29.3%" filterUnits="objectBoundingBox">
            <feOffset in="SourceAlpha" result="shadowOffsetOuter1"/>
            <feGaussianBlur in="shadowOffsetOuter1" result="shadowBlurOuter1" stdDeviation="10"/>
            <feColorMatrix in="shadowBlurOuter1" values="0 0 0 0 0 0 0 0 0 0.984842837 0 0 0 0 0.817903459 0 0 0 0.2 0"/>
        </filter>
        <path id="bsg0b9ikjb" d="M102.527 51.264c0 28.312-22.954 51.263-51.265 51.263-6.945 0-13.565-1.381-19.604-3.884C15.153 91.806 2.996 76.595.482 58.31.162 56.007 0 53.655 0 51.264 0 22.951 22.95 0 51.262 0c28.311 0 51.265 22.95 51.265 51.264z"/>
    </defs>
    <g fill="none" fill-rule="evenodd">
        <g fill-rule="nonzero">
            <g>
                <g>
                    <g transform="translate(-276 -296) translate(276 296) translate(20 20.015)">
                        <use fill="#000" filter="url(#p85revrlaa)" xlink:href="#bsg0b9ikjb"/>
                        <use fill="#00F6D2" xlink:href="#bsg0b9ikjb"/>
                    </g>
                    <path fill="#00AF95" d="M44.061.617c24.211 3.828 42.737 25.044 42.737 50.647 0 25.6-18.524 46.815-42.734 50.645 2.562.405 5.187.618 7.86.618 27.946 0 50.603-22.951 50.603-51.263C102.527 22.951 79.87 0 51.926 0c-2.676 0-5.302.212-7.865.617z" transform="translate(-276 -296) translate(276 296) translate(20 20.015)"/>
                </g>
                <g>
                    <path fill="#FDD7BD" d="M107.225 58.123L78.4 77.405c-2.053 1.375-4.541 1.92-6.972 1.528-2.438-.392-4.931.145-6.99 1.522l-3.858 2.583-21.603-32.17 5.3-23.133c.412-1.8.616-3.626.616-5.444 0-4.703-1.362-9.345-3.973-13.33-.642-.98-.949-2.09-.949-3.184 0-1.87.899-3.706 2.56-4.817 2.237-1.498 5.203-1.22 7.13.669l3.434 3.36c3.927 3.848 6.956 8.535 8.858 13.718l1.862 5.064 19.174-12.799c3.062-2.048 7.204-1.152 9.16 2.017 1.886 3.052.917 7.085-2.054 9.072-.036.024-.038.063-.026.092.017.032.053.054.093.037.758-.295 1.55-.438 2.336-.438 1.255 0 2.5.365 3.563 1.06.733.48 1.383 1.116 1.895 1.898.99 1.51 1.285 3.282.961 4.929-.508 2.594-2.374 3.93-2.74 4.182-.063.044-.08.13-.037.196 0 .002.003.005.005.005.04.058.124.075.184.037.522-.129 1.054-.19 1.586-.19 1.299 0 2.59.373 3.688 1.08.743.48 1.4 1.114 1.908 1.89 1.993 3.041 1.17 7.139-1.844 9.153-.074.051-.148.102-.222.15-.043.035-.056.09-.033.129.004.01.014.02.023.024.034.026.087.029.13-.005 1.871-.644 3.908-.35 5.547.721.754.49 1.423 1.148 1.953 1.956 1.994 3.043 1.17 7.141-1.84 9.156z" transform="translate(-276 -296) translate(276 296) translate(20.447 9.1)"/>
                    <path fill="#23C1FF" d="M60.461 89.384l-12.17 8.152-17.57 11.77C14.458 102.488 2.478 87.328 0 69.098l20.39-13.658L32.8 47.125c1.43-.958 3.357-.56 4.304.888L61.34 85.027c.947 1.448.554 3.395-.878 4.357z" transform="translate(-276 -296) translate(276 296) translate(20.447 9.1)"/>
                    <path fill="#0976FF" d="M60.46 89.17l-12.186 8.273-27.938-42.719 12.428-8.439c1.43-.972 3.361-.568 4.31.902l24.264 37.56c.949 1.471.555 3.447-.879 4.423z" transform="translate(-276 -296) translate(276 296) translate(20.447 9.1)"/>
                    <g fill="#FAC5AA">
                        <path d="M13.538 1.207L4.065 6.406c-1.344.736-3.01.351-3.913-.903L7.62.547c.017.032.052.054.092.037C8.46.288 9.243.145 10.02.145c1.24 0 2.467.366 3.518 1.062zM19.012 13.376l-9.267 5.081c-1.344.738-3.01.355-3.914-.9l7.468-4.956.323-.155c.04.058.123.075.182.037.516-.129 1.041-.19 1.566-.19 1.283 0 2.558.374 3.642 1.083zM24.453 25.468l-8.162 4.478c-1.342.735-3.008.351-3.915-.903l6.47-4.293c.034.027.086.03.128-.005 1.848-.645 3.86-.352 5.479.723z" transform="translate(-276 -296) translate(276 296) translate(20.447 9.1) translate(83.038 22.03)"/>
                    </g>
                </g>
            </g>
        </g>
    </g>
</svg>
