<svg xmlns="http://www.w3.org/2000/svg" width="89" height="93" viewBox="0 0 89 93">
    <g fill="none" fill-rule="evenodd">
        <g fill-rule="nonzero">
            <g>
                <g>
                    <g>
                        <path fill="#00F6D2" d="M70.674 35.337c0 19.516-15.822 35.337-35.338 35.337-4.787 0-9.35-.952-13.514-2.677C10.445 63.284 2.065 52.799.332 40.194.112 38.607 0 36.985 0 35.337 0 15.82 15.82 0 35.336 0s35.338 15.82 35.338 35.337z" transform="translate(-507 -292) translate(507 292) translate(1 15) translate(.5 7)"/>
                        <path fill="#00AF95" d="M30.372.426c16.69 2.638 29.46 17.262 29.46 34.911 0 17.647-12.77 32.271-29.457 34.91 1.766.28 3.575.427 5.418.427 19.263 0 34.88-15.82 34.88-35.337C70.674 15.82 55.057 0 35.794 0c-1.844 0-3.654.146-5.42.426z" transform="translate(-507 -292) translate(507 292) translate(1 15) translate(.5 7)"/>
                    </g>
                    <path fill="#FDD7BD" d="M75.484 39.897L55.64 53.134c-1.413.943-3.126 1.317-4.8 1.048-1.678-.27-3.395.1-4.812 1.045L43.372 57 28.5 34.917l3.649-15.879c.283-1.236.424-2.489.424-3.737 0-3.228-.938-6.415-2.735-9.15-.442-.673-.654-1.434-.654-2.185 0-1.284.619-2.544 1.762-3.307 1.54-1.028 3.583-.837 4.91.459l2.363 2.306c2.704 2.642 4.789 5.859 6.098 9.417l1.282 3.476 13.2-8.785c2.108-1.406 4.96-.791 6.307 1.384 1.298 2.095.631 4.864-1.414 6.228-.025.016-.027.043-.019.063.012.022.037.036.064.025.522-.203 1.068-.3 1.61-.3.863 0 1.72.25 2.452.727.505.329.952.766 1.305 1.302.681 1.037.884 2.254.661 3.384-.35 1.78-1.635 2.698-1.887 2.87-.043.031-.054.09-.025.136l.003.003c.029.04.086.051.127.025.36-.088.726-.13 1.092-.13.894 0 1.783.256 2.54.741.51.33.962.765 1.312 1.298 1.372 2.087.806 4.9-1.269 6.283-.05.035-.102.07-.153.103-.03.023-.038.061-.023.088.003.006.01.013.017.016.023.018.059.02.089-.003 1.288-.442 2.69-.241 3.818.495.52.336.98.788 1.345 1.343 1.373 2.088.805 4.901-1.267 6.284z" transform="translate(-507 -292) translate(507 292) translate(1 15)"/>
                    <path fill="#23C1FF" d="M42.554 61.338l-8.264 5.59L22.36 75C11.316 70.325 3.182 59.929 1.5 47.427l13.844-9.366 8.428-5.703c.97-.657 2.28-.384 2.923.609L43.15 58.35c.643.993.376 2.329-.596 2.988z" transform="translate(-507 -292) translate(507 292) translate(1 15)"/>
                    <path fill="#0976FF" d="M42.559 61.238L34.34 67 15.5 37.246l8.381-5.877c.965-.677 2.267-.396 2.907.628l16.364 26.16c.639 1.025.373 2.401-.593 3.08z" transform="translate(-507 -292) translate(507 292) translate(1 15)"/>
                    <g fill="#FAC5AA">
                        <path d="M9.366.831l-6.554 3.58c-.93.506-2.082.241-2.707-.623L5.272.377c.011.022.036.037.063.025C5.853.199 6.395.1 6.932.1 7.79.1 8.639.352 9.366.83zM13.153 9.208l-6.411 3.499c-.93.508-2.082.244-2.708-.62L9.2 8.675l.223-.107c.028.04.085.052.126.026.357-.089.72-.131 1.084-.131.887 0 1.77.257 2.52.745zM16.917 17.533l-5.647 3.083c-.928.506-2.08.242-2.708-.622l4.476-2.955c.024.018.06.02.089-.004 1.278-.444 2.67-.242 3.79.498z" transform="translate(-507 -292) translate(507 292) translate(1 15) translate(58.5 15)"/>
                    </g>
                </g>
                <path fill="#FFF" d="M82.52 64.309l1.569 2.867c.054.1.136.181.235.235l2.867 1.569c.412.225.412.815 0 1.04l-2.867 1.569c-.1.054-.181.136-.235.235l-1.569 2.867c-.225.412-.815.412-1.04 0l-1.569-2.867c-.054-.1-.136-.181-.235-.235l-2.867-1.569c-.412-.225-.412-.815 0-1.04l2.867-1.568c.1-.055.181-.137.235-.236l1.569-2.867c.225-.412.815-.412 1.04 0zM20.71.42l2.138 3.91c.074.136.186.248.321.322l3.91 2.138c.561.307.561 1.113 0 1.42l-3.91 2.138c-.135.074-.247.186-.32.322l-2.14 3.91c-.306.56-1.112.56-1.419 0l-2.138-3.91c-.074-.136-.186-.248-.321-.322L12.92 8.21c-.561-.307-.561-1.113 0-1.42l3.91-2.138c.135-.074.247-.186.321-.321L19.29.42c.307-.561 1.113-.561 1.42 0zM9.426 15.252l1.283 2.346c.044.082.111.149.193.193l2.346 1.283c.336.184.336.668 0 .852l-2.346 1.283c-.082.044-.149.111-.193.193l-1.283 2.346c-.184.336-.668.336-.852 0l-1.283-2.346c-.044-.082-.111-.149-.193-.193l-2.346-1.283c-.336-.184-.336-.668 0-.852l2.346-1.283c.082-.044.149-.111.193-.193l1.283-2.345c.184-.337.668-.337.852 0z" transform="translate(-507 -292) translate(507 292)"/>
            </g>
        </g>
    </g>
</svg>
